<svg xmlns="http://www.w3.org/2000/svg" xmlns:svg="http://www.w3.org/2000/svg" id="Capa_1" x="0" y="0" version="1.1" viewBox="0 0 67.671 67.671" style="enable-background:new 0 0 67.671 67.671" xml:space="preserve"><g id="g6" style="fill:#fff" transform="matrix(0.82363056,0,0,0.82363056,5.9675483,6)"><path id="path2" d="M 52.946,23.348 H 42.834 v 6 h 10.112 c 3.007,0 5.34,1.536 5.34,2.858 v 26.606 c 0,1.322 -2.333,2.858 -5.34,2.858 H 14.724 c -3.007,0 -5.34,-1.536 -5.34,-2.858 V 32.207 c 0,-1.322 2.333,-2.858 5.34,-2.858 h 10.11 v -6 h -10.11 c -6.359,0 -11.34,3.891 -11.34,8.858 v 26.606 c 0,4.968 4.981,8.858 11.34,8.858 h 38.223 c 6.358,0 11.34,-3.891 11.34,-8.858 V 32.207 C 64.286,27.239 59.305,23.348 52.946,23.348 Z" style="fill:#fff"/><path id="path4" d="m 24.957,14.955 c 0.768,0 1.535,-0.293 2.121,-0.879 l 3.756,-3.756 v 13.028 6 11.494 c 0,1.657 1.343,3 3,3 1.657,0 3,-1.343 3,-3 v -11.494 -6 -13.231 l 3.959,3.959 c 0.586,0.586 1.354,0.879 2.121,0.879 0.767,0 1.535,-0.293 2.121,-0.879 1.172,-1.171 1.172,-3.071 0,-4.242 L 36.078,0.877 C 35.492,0.291 34.725,0 33.958,0 33.95,0 33.943,0 33.935,0 33.927,0 33.92,0 33.912,0 33.145,0 32.378,0.291 31.792,0.877 l -8.957,8.957 c -1.172,1.171 -1.172,3.071 0,4.242 0.587,0.586 1.354,0.879 2.122,0.879 z" style="fill:#fff"/></g></svg>