<svg xmlns="http://www.w3.org/2000/svg" xmlns:svg="http://www.w3.org/2000/svg" id="Capa_1" x="0" y="0" version="1.1" viewBox="0 0 67.671 67.671" style="enable-background:new 0 0 67.671 67.671" xml:space="preserve"><g id="g6"><path id="path2" d="M 49.575492,25.197675 H 41.24694 v 4.941783 h 8.328552 c 2.476657,0 4.398187,1.265096 4.398187,2.353936 v 21.913515 c 0,1.088839 -1.92153,2.353936 -4.398187,2.353936 H 18.094685 c -2.476657,0 -4.398188,-1.265097 -4.398188,-2.353936 V 32.494218 c 0,-1.08884 1.921531,-2.353936 4.398188,-2.353936 h 8.326905 v -4.941784 h -8.326905 c -5.237467,0 -9.3399709,3.204747 -9.3399709,7.29572 v 21.913514 c 0,4.091797 4.1025039,7.29572 9.3399709,7.29572 h 31.48163 c 5.236643,0 9.339971,-3.204747 9.339971,-7.29572 V 32.494218 c -8.24e-4,-4.091797 -4.103328,-7.296543 -9.340794,-7.296543 z" style="fill:#fff;stroke-width:.823631"/><path id="path4" d="m 41.312006,34.701548 c -0.632548,0 -1.128592,0.43489 -1.74692,0.723971 L 36.47153,38.519075 V 22.847033 17.90525 8.4384399 c 0,-1.3647558 -1.106136,-2.4708916 -2.470892,-2.4708916 -1.364756,0 -2.470892,1.1061358 -2.470892,2.4708916 v 9.4668101 9.883566 10.897456 l -3.260753,-3.260753 c -0.482648,-0.482648 -1.115196,-0.723971 -1.746921,-0.723971 -0.631724,0 -1.264272,0.241323 -1.74692,0.723971 -0.965295,0.964471 -0.965295,2.529369 0,3.493841 l 7.377259,7.377259 c 0.482647,0.482647 1.114372,0.722324 1.746097,0.722324 h 0.01894 0.01894 c 0.631724,0 1.263449,-0.239677 1.746097,-0.722324 L 43.05975,38.91936 c 0.965295,-0.964472 0.965295,-2.52937 0,-3.493841 -0.483471,-0.482648 -1.115195,-0.723971 -1.747744,-0.723971 z" style="fill:#fff;stroke-width:.823631"/></g></svg>